<mxfile host="app.diagrams.net" modified="2020-12-25T08:54:40.388Z" agent="5.0 (Macintosh; Intel Mac OS X 10_15_6) AppleWebKit/537.36 (KHTML, like Gecko) Chrome/86.0.4240.198 Safari/537.36" etag="8iZQ1pP3CjegLNo0vaoV" version="14.1.2" type="github" pages="3">
  <diagram id="NSJ63zZQJe8cC3gt2KGX" name="Page-1">
    <mxGraphModel dx="912" dy="489" grid="0" gridSize="10" guides="1" tooltips="1" connect="1" arrows="1" fold="1" page="1" pageScale="1" pageWidth="827" pageHeight="1169" math="0" shadow="0">
      <root>
        <mxCell id="0" />
        <mxCell id="1" parent="0" />
        <mxCell id="XOVL-qlQBi2YUcZTy3Yg-1" value="gateway" style="rounded=1;whiteSpace=wrap;html=1;" parent="1" vertex="1">
          <mxGeometry x="210" y="100" width="290" height="60" as="geometry" />
        </mxCell>
        <mxCell id="XOVL-qlQBi2YUcZTy3Yg-2" value="" style="rounded=1;whiteSpace=wrap;html=1;align=left;" parent="1" vertex="1">
          <mxGeometry x="210" y="310" width="290" height="60" as="geometry" />
        </mxCell>
        <mxCell id="XOVL-qlQBi2YUcZTy3Yg-3" value="model" style="shape=cylinder3;whiteSpace=wrap;html=1;boundedLbl=1;backgroundOutline=1;size=15;" parent="1" vertex="1">
          <mxGeometry x="550" y="310" width="60" height="60" as="geometry" />
        </mxCell>
        <mxCell id="XOVL-qlQBi2YUcZTy3Yg-12" style="edgeStyle=orthogonalEdgeStyle;rounded=0;orthogonalLoop=1;jettySize=auto;html=1;exitX=1;exitY=0.5;exitDx=0;exitDy=0;entryX=0;entryY=0.5;entryDx=0;entryDy=0;" parent="1" source="XOVL-qlQBi2YUcZTy3Yg-4" target="XOVL-qlQBi2YUcZTy3Yg-7" edge="1">
          <mxGeometry relative="1" as="geometry" />
        </mxCell>
        <mxCell id="XOVL-qlQBi2YUcZTy3Yg-4" value="text_det" style="rounded=1;whiteSpace=wrap;html=1;" parent="1" vertex="1">
          <mxGeometry x="220" y="210" width="50" height="40" as="geometry" />
        </mxCell>
        <mxCell id="XOVL-qlQBi2YUcZTy3Yg-15" style="edgeStyle=orthogonalEdgeStyle;rounded=0;orthogonalLoop=1;jettySize=auto;html=1;exitX=1;exitY=0.5;exitDx=0;exitDy=0;entryX=0;entryY=0.5;entryDx=0;entryDy=0;" parent="1" source="XOVL-qlQBi2YUcZTy3Yg-5" target="XOVL-qlQBi2YUcZTy3Yg-6" edge="1">
          <mxGeometry relative="1" as="geometry" />
        </mxCell>
        <mxCell id="XOVL-qlQBi2YUcZTy3Yg-5" value="text_rec" style="rounded=1;whiteSpace=wrap;html=1;" parent="1" vertex="1">
          <mxGeometry x="360" y="210" width="50" height="40" as="geometry" />
        </mxCell>
        <mxCell id="XOVL-qlQBi2YUcZTy3Yg-6" value="lang_cls" style="rounded=1;whiteSpace=wrap;html=1;" parent="1" vertex="1">
          <mxGeometry x="430" y="210" width="50" height="40" as="geometry" />
        </mxCell>
        <mxCell id="XOVL-qlQBi2YUcZTy3Yg-14" style="edgeStyle=orthogonalEdgeStyle;rounded=0;orthogonalLoop=1;jettySize=auto;html=1;exitX=1;exitY=0.5;exitDx=0;exitDy=0;entryX=0;entryY=0.5;entryDx=0;entryDy=0;" parent="1" source="XOVL-qlQBi2YUcZTy3Yg-7" target="XOVL-qlQBi2YUcZTy3Yg-5" edge="1">
          <mxGeometry relative="1" as="geometry" />
        </mxCell>
        <mxCell id="XOVL-qlQBi2YUcZTy3Yg-7" value="dir_cls" style="rounded=1;whiteSpace=wrap;html=1;" parent="1" vertex="1">
          <mxGeometry x="290" y="210" width="50" height="40" as="geometry" />
        </mxCell>
        <mxCell id="XOVL-qlQBi2YUcZTy3Yg-9" value="" style="endArrow=classic;html=1;" parent="1" edge="1">
          <mxGeometry width="50" height="50" relative="1" as="geometry">
            <mxPoint x="244.5" y="60" as="sourcePoint" />
            <mxPoint x="244.5" y="100" as="targetPoint" />
          </mxGeometry>
        </mxCell>
        <mxCell id="XOVL-qlQBi2YUcZTy3Yg-10" value="" style="endArrow=classic;html=1;" parent="1" edge="1">
          <mxGeometry width="50" height="50" relative="1" as="geometry">
            <mxPoint x="244.5" y="160" as="sourcePoint" />
            <mxPoint x="244.5" y="200" as="targetPoint" />
          </mxGeometry>
        </mxCell>
        <mxCell id="XOVL-qlQBi2YUcZTy3Yg-11" value="" style="endArrow=classic;html=1;" parent="1" edge="1">
          <mxGeometry width="50" height="50" relative="1" as="geometry">
            <mxPoint x="455" y="200" as="sourcePoint" />
            <mxPoint x="454.5" y="160" as="targetPoint" />
          </mxGeometry>
        </mxCell>
        <mxCell id="XOVL-qlQBi2YUcZTy3Yg-16" value="" style="endArrow=classic;html=1;" parent="1" edge="1">
          <mxGeometry width="50" height="50" relative="1" as="geometry">
            <mxPoint x="455" y="100" as="sourcePoint" />
            <mxPoint x="454.5" y="60" as="targetPoint" />
          </mxGeometry>
        </mxCell>
        <mxCell id="XOVL-qlQBi2YUcZTy3Yg-18" value="接入层" style="text;html=1;strokeColor=none;fillColor=none;align=center;verticalAlign=middle;whiteSpace=wrap;rounded=0;" parent="1" vertex="1">
          <mxGeometry x="140" y="120" width="40" height="20" as="geometry" />
        </mxCell>
        <mxCell id="XOVL-qlQBi2YUcZTy3Yg-19" value="业务层Pipeline" style="text;html=1;strokeColor=none;fillColor=none;align=center;verticalAlign=middle;whiteSpace=wrap;rounded=0;" parent="1" vertex="1">
          <mxGeometry x="140" y="220" width="40" height="20" as="geometry" />
        </mxCell>
        <mxCell id="XOVL-qlQBi2YUcZTy3Yg-21" value="模型服务" style="text;html=1;strokeColor=none;fillColor=none;align=center;verticalAlign=middle;whiteSpace=wrap;rounded=0;" parent="1" vertex="1">
          <mxGeometry x="135" y="330" width="50" height="20" as="geometry" />
        </mxCell>
        <mxCell id="XOVL-qlQBi2YUcZTy3Yg-22" value="TF Serving" style="rounded=1;whiteSpace=wrap;html=1;" parent="1" vertex="1">
          <mxGeometry x="220" y="320" width="80" height="40" as="geometry" />
        </mxCell>
        <mxCell id="XOVL-qlQBi2YUcZTy3Yg-24" value="MXNET Serving" style="rounded=1;whiteSpace=wrap;html=1;" parent="1" vertex="1">
          <mxGeometry x="310" y="320" width="80" height="40" as="geometry" />
        </mxCell>
        <mxCell id="XOVL-qlQBi2YUcZTy3Yg-25" value="TRT Serving" style="rounded=1;whiteSpace=wrap;html=1;" parent="1" vertex="1">
          <mxGeometry x="400" y="320" width="80" height="40" as="geometry" />
        </mxCell>
        <mxCell id="XOVL-qlQBi2YUcZTy3Yg-26" value="" style="endArrow=classic;startArrow=classic;html=1;" parent="1" edge="1">
          <mxGeometry width="50" height="50" relative="1" as="geometry">
            <mxPoint x="245" y="300" as="sourcePoint" />
            <mxPoint x="245" y="260" as="targetPoint" />
          </mxGeometry>
        </mxCell>
        <mxCell id="XOVL-qlQBi2YUcZTy3Yg-27" value="" style="endArrow=classic;startArrow=classic;html=1;" parent="1" edge="1">
          <mxGeometry width="50" height="50" relative="1" as="geometry">
            <mxPoint x="314.5" y="300" as="sourcePoint" />
            <mxPoint x="315" y="260" as="targetPoint" />
          </mxGeometry>
        </mxCell>
        <mxCell id="XOVL-qlQBi2YUcZTy3Yg-28" value="" style="endArrow=classic;startArrow=classic;html=1;" parent="1" edge="1">
          <mxGeometry width="50" height="50" relative="1" as="geometry">
            <mxPoint x="384.5" y="300" as="sourcePoint" />
            <mxPoint x="385" y="260" as="targetPoint" />
          </mxGeometry>
        </mxCell>
        <mxCell id="XOVL-qlQBi2YUcZTy3Yg-29" value="" style="endArrow=classic;startArrow=classic;html=1;" parent="1" edge="1">
          <mxGeometry width="50" height="50" relative="1" as="geometry">
            <mxPoint x="454.5" y="300" as="sourcePoint" />
            <mxPoint x="455" y="260" as="targetPoint" />
          </mxGeometry>
        </mxCell>
        <mxCell id="XOVL-qlQBi2YUcZTy3Yg-30" value="" style="endArrow=classic;startArrow=classic;html=1;" parent="1" edge="1">
          <mxGeometry width="50" height="50" relative="1" as="geometry">
            <mxPoint x="510" y="339.5" as="sourcePoint" />
            <mxPoint x="550" y="339.5" as="targetPoint" />
            <Array as="points">
              <mxPoint x="520" y="339.5" />
              <mxPoint x="530" y="339.5" />
            </Array>
          </mxGeometry>
        </mxCell>
      </root>
    </mxGraphModel>
  </diagram>
  <diagram id="X96-JA7P6P6hcyoWpG2v" name="第 2 页">
    <mxGraphModel dx="912" dy="489" grid="0" gridSize="10" guides="1" tooltips="1" connect="1" arrows="1" fold="1" page="1" pageScale="1" pageWidth="827" pageHeight="1169" math="0" shadow="0">
      <root>
        <mxCell id="jh5rk2dh76c--vLf01iN-0" />
        <mxCell id="jh5rk2dh76c--vLf01iN-1" parent="jh5rk2dh76c--vLf01iN-0" />
        <mxCell id="jh5rk2dh76c--vLf01iN-2" value="文本行检测" style="rounded=1;whiteSpace=wrap;html=1;" parent="jh5rk2dh76c--vLf01iN-1" vertex="1">
          <mxGeometry x="140" y="170" width="90" height="60" as="geometry" />
        </mxCell>
        <mxCell id="jh5rk2dh76c--vLf01iN-3" value="单字符分割" style="rounded=1;whiteSpace=wrap;html=1;" parent="jh5rk2dh76c--vLf01iN-1" vertex="1">
          <mxGeometry x="270" y="170" width="86" height="60" as="geometry" />
        </mxCell>
        <mxCell id="jh5rk2dh76c--vLf01iN-4" value="单字符识别" style="rounded=1;whiteSpace=wrap;html=1;" parent="jh5rk2dh76c--vLf01iN-1" vertex="1">
          <mxGeometry x="390" y="170" width="90" height="60" as="geometry" />
        </mxCell>
        <mxCell id="jh5rk2dh76c--vLf01iN-5" value="后处理" style="rounded=1;whiteSpace=wrap;html=1;" parent="jh5rk2dh76c--vLf01iN-1" vertex="1">
          <mxGeometry x="520" y="170" width="80" height="60" as="geometry" />
        </mxCell>
        <mxCell id="jh5rk2dh76c--vLf01iN-6" value="" style="shape=flexArrow;endArrow=classic;html=1;width=10;endSize=4.67;" parent="jh5rk2dh76c--vLf01iN-1" edge="1">
          <mxGeometry width="50" height="50" relative="1" as="geometry">
            <mxPoint x="240" y="199.5" as="sourcePoint" />
            <mxPoint x="270" y="199.5" as="targetPoint" />
          </mxGeometry>
        </mxCell>
        <mxCell id="jh5rk2dh76c--vLf01iN-7" value="" style="shape=flexArrow;endArrow=classic;html=1;width=10;endSize=4.67;" parent="jh5rk2dh76c--vLf01iN-1" edge="1">
          <mxGeometry width="50" height="50" relative="1" as="geometry">
            <mxPoint x="360" y="199.5" as="sourcePoint" />
            <mxPoint x="390" y="199.5" as="targetPoint" />
          </mxGeometry>
        </mxCell>
        <mxCell id="jh5rk2dh76c--vLf01iN-8" value="" style="shape=flexArrow;endArrow=classic;html=1;width=10;endSize=4.67;" parent="jh5rk2dh76c--vLf01iN-1" edge="1">
          <mxGeometry width="50" height="50" relative="1" as="geometry">
            <mxPoint x="490" y="199.5" as="sourcePoint" />
            <mxPoint x="520" y="199.5" as="targetPoint" />
          </mxGeometry>
        </mxCell>
      </root>
    </mxGraphModel>
  </diagram>
  <diagram id="LsQUhbzRgHLX5ljO5_SJ" name="Page-3">
    <mxGraphModel dx="912" dy="489" grid="0" gridSize="10" guides="1" tooltips="1" connect="1" arrows="1" fold="1" page="1" pageScale="1" pageWidth="827" pageHeight="1169" math="0" shadow="0">
      <root>
        <mxCell id="CqfZ5ZP81gQBT53N7EVz-0" />
        <mxCell id="CqfZ5ZP81gQBT53N7EVz-1" parent="CqfZ5ZP81gQBT53N7EVz-0" />
        <mxCell id="CqfZ5ZP81gQBT53N7EVz-2" value="" style="rounded=0;whiteSpace=wrap;html=1;fillColor=#CCFFE6;" vertex="1" parent="CqfZ5ZP81gQBT53N7EVz-1">
          <mxGeometry x="70" y="90" width="50" height="10" as="geometry" />
        </mxCell>
        <mxCell id="CqfZ5ZP81gQBT53N7EVz-3" value="" style="rounded=0;whiteSpace=wrap;html=1;fillColor=#CCFFE6;" vertex="1" parent="CqfZ5ZP81gQBT53N7EVz-1">
          <mxGeometry x="70" y="110" width="50" height="10" as="geometry" />
        </mxCell>
        <mxCell id="CqfZ5ZP81gQBT53N7EVz-4" value="" style="rounded=0;whiteSpace=wrap;html=1;fillColor=#A9C4EB;" vertex="1" parent="CqfZ5ZP81gQBT53N7EVz-1">
          <mxGeometry x="70" y="150" width="100" height="10" as="geometry" />
        </mxCell>
        <mxCell id="CqfZ5ZP81gQBT53N7EVz-5" value="" style="rounded=0;whiteSpace=wrap;html=1;fillColor=#CCFFE6;" vertex="1" parent="CqfZ5ZP81gQBT53N7EVz-1">
          <mxGeometry x="200" y="90" width="50" height="10" as="geometry" />
        </mxCell>
        <mxCell id="CqfZ5ZP81gQBT53N7EVz-6" value="" style="rounded=0;whiteSpace=wrap;html=1;fillColor=#CCFFE6;" vertex="1" parent="CqfZ5ZP81gQBT53N7EVz-1">
          <mxGeometry x="200" y="110" width="50" height="10" as="geometry" />
        </mxCell>
        <mxCell id="CqfZ5ZP81gQBT53N7EVz-7" value="" style="rounded=0;whiteSpace=wrap;html=1;fillColor=#CCFFE6;" vertex="1" parent="CqfZ5ZP81gQBT53N7EVz-1">
          <mxGeometry x="200" y="130" width="40" height="10" as="geometry" />
        </mxCell>
        <mxCell id="CqfZ5ZP81gQBT53N7EVz-8" value="" style="rounded=0;whiteSpace=wrap;html=1;fillColor=#A9C4EB;" vertex="1" parent="CqfZ5ZP81gQBT53N7EVz-1">
          <mxGeometry x="200" y="150" width="100" height="10" as="geometry" />
        </mxCell>
        <mxCell id="CqfZ5ZP81gQBT53N7EVz-9" value="" style="rounded=0;whiteSpace=wrap;html=1;fillColor=#A9C4EB;" vertex="1" parent="CqfZ5ZP81gQBT53N7EVz-1">
          <mxGeometry x="330" y="90" width="100" height="10" as="geometry" />
        </mxCell>
        <mxCell id="CqfZ5ZP81gQBT53N7EVz-10" value="" style="rounded=0;whiteSpace=wrap;html=1;fillColor=#FFB570;" vertex="1" parent="CqfZ5ZP81gQBT53N7EVz-1">
          <mxGeometry x="330" y="110" width="130" height="10" as="geometry" />
        </mxCell>
        <mxCell id="CqfZ5ZP81gQBT53N7EVz-12" value="" style="rounded=0;whiteSpace=wrap;html=1;fillColor=#FFB570;" vertex="1" parent="CqfZ5ZP81gQBT53N7EVz-1">
          <mxGeometry x="330" y="130" width="150" height="10" as="geometry" />
        </mxCell>
        <mxCell id="CqfZ5ZP81gQBT53N7EVz-13" value="scheduler" style="rounded=1;whiteSpace=wrap;html=1;sketch=0;shadow=0;glass=0;fillColor=none;" vertex="1" parent="CqfZ5ZP81gQBT53N7EVz-1">
          <mxGeometry x="80" y="210" width="320" height="30" as="geometry" />
        </mxCell>
        <mxCell id="CqfZ5ZP81gQBT53N7EVz-14" value="" style="rounded=0;whiteSpace=wrap;html=1;" vertex="1" parent="CqfZ5ZP81gQBT53N7EVz-1">
          <mxGeometry x="90" y="360" width="120" height="90" as="geometry" />
        </mxCell>
        <mxCell id="CqfZ5ZP81gQBT53N7EVz-15" value="engine" style="rounded=1;whiteSpace=wrap;html=1;verticalAlign=top;fillColor=#CCFFE6;" vertex="1" parent="CqfZ5ZP81gQBT53N7EVz-1">
          <mxGeometry x="100" y="370" width="60" height="35" as="geometry" />
        </mxCell>
        <mxCell id="CqfZ5ZP81gQBT53N7EVz-16" value="engine" style="rounded=1;whiteSpace=wrap;html=1;verticalAlign=top;fillColor=#A9C4EB;" vertex="1" parent="CqfZ5ZP81gQBT53N7EVz-1">
          <mxGeometry x="120" y="387.5" width="60" height="35" as="geometry" />
        </mxCell>
        <mxCell id="CqfZ5ZP81gQBT53N7EVz-17" value="engine" style="rounded=1;whiteSpace=wrap;html=1;verticalAlign=top;fillColor=#FFB570;" vertex="1" parent="CqfZ5ZP81gQBT53N7EVz-1">
          <mxGeometry x="140" y="405" width="60" height="35" as="geometry" />
        </mxCell>
        <mxCell id="CqfZ5ZP81gQBT53N7EVz-18" value="" style="rounded=0;whiteSpace=wrap;html=1;" vertex="1" parent="CqfZ5ZP81gQBT53N7EVz-1">
          <mxGeometry x="260" y="360" width="120" height="90" as="geometry" />
        </mxCell>
        <mxCell id="CqfZ5ZP81gQBT53N7EVz-19" value="engine" style="rounded=1;whiteSpace=wrap;html=1;verticalAlign=top;fillColor=#CCFFE6;" vertex="1" parent="CqfZ5ZP81gQBT53N7EVz-1">
          <mxGeometry x="270" y="370" width="60" height="35" as="geometry" />
        </mxCell>
        <mxCell id="CqfZ5ZP81gQBT53N7EVz-20" value="engine" style="rounded=1;whiteSpace=wrap;html=1;fillColor=#A9C4EB;" vertex="1" parent="CqfZ5ZP81gQBT53N7EVz-1">
          <mxGeometry x="290" y="387.5" width="60" height="35" as="geometry" />
        </mxCell>
        <mxCell id="CqfZ5ZP81gQBT53N7EVz-21" value="engine" style="rounded=1;whiteSpace=wrap;html=1;fillColor=#FFB570;" vertex="1" parent="CqfZ5ZP81gQBT53N7EVz-1">
          <mxGeometry x="310" y="405" width="60" height="35" as="geometry" />
        </mxCell>
        <mxCell id="CqfZ5ZP81gQBT53N7EVz-42" value="" style="rounded=0;whiteSpace=wrap;html=1;fillColor=#CCFFE6;" vertex="1" parent="CqfZ5ZP81gQBT53N7EVz-1">
          <mxGeometry x="90" y="260" width="50" height="10" as="geometry" />
        </mxCell>
        <mxCell id="CqfZ5ZP81gQBT53N7EVz-43" value="" style="rounded=0;whiteSpace=wrap;html=1;fillColor=#CCFFE6;" vertex="1" parent="CqfZ5ZP81gQBT53N7EVz-1">
          <mxGeometry x="140" y="260" width="50" height="10" as="geometry" />
        </mxCell>
        <mxCell id="CqfZ5ZP81gQBT53N7EVz-44" value="" style="rounded=0;whiteSpace=wrap;html=1;fillColor=#CCFFE6;" vertex="1" parent="CqfZ5ZP81gQBT53N7EVz-1">
          <mxGeometry x="190" y="260" width="50" height="10" as="geometry" />
        </mxCell>
        <mxCell id="CqfZ5ZP81gQBT53N7EVz-45" value="" style="rounded=0;whiteSpace=wrap;html=1;fillColor=#CCFFE6;" vertex="1" parent="CqfZ5ZP81gQBT53N7EVz-1">
          <mxGeometry x="240" y="260" width="50" height="10" as="geometry" />
        </mxCell>
        <mxCell id="CqfZ5ZP81gQBT53N7EVz-46" value="" style="rounded=0;whiteSpace=wrap;html=1;fillColor=#CCFFE6;" vertex="1" parent="CqfZ5ZP81gQBT53N7EVz-1">
          <mxGeometry x="290" y="260" width="50" height="10" as="geometry" />
        </mxCell>
        <mxCell id="CqfZ5ZP81gQBT53N7EVz-47" value="" style="rounded=0;whiteSpace=wrap;html=1;shadow=0;sketch=0;glass=0;fillColor=none;" vertex="1" parent="CqfZ5ZP81gQBT53N7EVz-1">
          <mxGeometry x="340" y="260" width="50" height="10" as="geometry" />
        </mxCell>
        <mxCell id="CqfZ5ZP81gQBT53N7EVz-53" value="" style="rounded=0;whiteSpace=wrap;html=1;fillColor=#A9C4EB;" vertex="1" parent="CqfZ5ZP81gQBT53N7EVz-1">
          <mxGeometry x="90" y="290" width="100" height="10" as="geometry" />
        </mxCell>
        <mxCell id="CqfZ5ZP81gQBT53N7EVz-54" value="" style="rounded=0;whiteSpace=wrap;html=1;fillColor=#A9C4EB;" vertex="1" parent="CqfZ5ZP81gQBT53N7EVz-1">
          <mxGeometry x="190" y="290" width="100" height="10" as="geometry" />
        </mxCell>
        <mxCell id="CqfZ5ZP81gQBT53N7EVz-55" value="" style="rounded=0;whiteSpace=wrap;html=1;fillColor=#A9C4EB;" vertex="1" parent="CqfZ5ZP81gQBT53N7EVz-1">
          <mxGeometry x="290" y="290" width="100" height="10" as="geometry" />
        </mxCell>
        <mxCell id="CqfZ5ZP81gQBT53N7EVz-56" value="" style="rounded=0;whiteSpace=wrap;html=1;fillColor=#FFB570;" vertex="1" parent="CqfZ5ZP81gQBT53N7EVz-1">
          <mxGeometry x="90" y="320" width="130" height="10" as="geometry" />
        </mxCell>
        <mxCell id="CqfZ5ZP81gQBT53N7EVz-57" value="" style="rounded=0;whiteSpace=wrap;html=1;fillColor=#FFB570;" vertex="1" parent="CqfZ5ZP81gQBT53N7EVz-1">
          <mxGeometry x="240" y="320" width="150" height="10" as="geometry" />
        </mxCell>
        <mxCell id="CqfZ5ZP81gQBT53N7EVz-59" value="" style="rounded=0;whiteSpace=wrap;html=1;fillColor=#CCFFE6;" vertex="1" parent="CqfZ5ZP81gQBT53N7EVz-1">
          <mxGeometry x="70" y="130" width="50" height="10" as="geometry" />
        </mxCell>
        <mxCell id="CqfZ5ZP81gQBT53N7EVz-60" value="" style="rounded=0;whiteSpace=wrap;html=1;fillColor=#CCFFE6;" vertex="1" parent="CqfZ5ZP81gQBT53N7EVz-1">
          <mxGeometry x="340" y="260" width="40" height="10" as="geometry" />
        </mxCell>
        <mxCell id="CqfZ5ZP81gQBT53N7EVz-63" value="" style="rounded=0;whiteSpace=wrap;html=1;fillColor=none;" vertex="1" parent="CqfZ5ZP81gQBT53N7EVz-1">
          <mxGeometry x="90" y="320" width="150" height="10" as="geometry" />
        </mxCell>
        <mxCell id="CqfZ5ZP81gQBT53N7EVz-65" value="req1" style="text;html=1;strokeColor=none;fillColor=none;align=center;verticalAlign=middle;whiteSpace=wrap;rounded=0;shadow=0;glass=0;sketch=0;" vertex="1" parent="CqfZ5ZP81gQBT53N7EVz-1">
          <mxGeometry x="75" y="60" width="40" height="20" as="geometry" />
        </mxCell>
        <mxCell id="CqfZ5ZP81gQBT53N7EVz-66" value="req2" style="text;html=1;strokeColor=none;fillColor=none;align=center;verticalAlign=middle;whiteSpace=wrap;rounded=0;shadow=0;glass=0;sketch=0;" vertex="1" parent="CqfZ5ZP81gQBT53N7EVz-1">
          <mxGeometry x="205" y="60" width="40" height="20" as="geometry" />
        </mxCell>
        <mxCell id="CqfZ5ZP81gQBT53N7EVz-67" value="req3" style="text;html=1;strokeColor=none;fillColor=none;align=center;verticalAlign=middle;whiteSpace=wrap;rounded=0;shadow=0;glass=0;sketch=0;" vertex="1" parent="CqfZ5ZP81gQBT53N7EVz-1">
          <mxGeometry x="345" y="60" width="40" height="20" as="geometry" />
        </mxCell>
        <mxCell id="CqfZ5ZP81gQBT53N7EVz-68" value="" style="curved=1;endArrow=classic;html=1;entryX=0;entryY=0.75;entryDx=0;entryDy=0;exitX=0.1;exitY=0.5;exitDx=0;exitDy=0;exitPerimeter=0;strokeColor=#66FFB3;" edge="1" parent="CqfZ5ZP81gQBT53N7EVz-1" source="CqfZ5ZP81gQBT53N7EVz-69" target="CqfZ5ZP81gQBT53N7EVz-42">
          <mxGeometry width="50" height="50" relative="1" as="geometry">
            <mxPoint x="40" y="131" as="sourcePoint" />
            <mxPoint x="120" y="45" as="targetPoint" />
            <Array as="points">
              <mxPoint x="16" y="172" />
            </Array>
          </mxGeometry>
        </mxCell>
        <mxCell id="CqfZ5ZP81gQBT53N7EVz-69" value="" style="shape=curlyBracket;whiteSpace=wrap;html=1;rounded=1;shadow=0;glass=0;sketch=0;strokeColor=#000000;fillColor=none;gradientColor=none;" vertex="1" parent="CqfZ5ZP81gQBT53N7EVz-1">
          <mxGeometry x="49" y="88.5" width="16" height="53" as="geometry" />
        </mxCell>
        <mxCell id="CqfZ5ZP81gQBT53N7EVz-71" value="" style="shape=curlyBracket;whiteSpace=wrap;html=1;rounded=1;shadow=0;glass=0;sketch=0;strokeColor=#000000;fillColor=none;gradientColor=none;" vertex="1" parent="CqfZ5ZP81gQBT53N7EVz-1">
          <mxGeometry x="180" y="88.5" width="16" height="53" as="geometry" />
        </mxCell>
        <mxCell id="CqfZ5ZP81gQBT53N7EVz-72" value="" style="curved=1;endArrow=classic;html=1;entryX=1;entryY=0.25;entryDx=0;entryDy=0;exitX=0.1;exitY=0.5;exitDx=0;exitDy=0;exitPerimeter=0;strokeColor=#66FFB3;" edge="1" parent="CqfZ5ZP81gQBT53N7EVz-1" target="CqfZ5ZP81gQBT53N7EVz-44">
          <mxGeometry width="50" height="50" relative="1" as="geometry">
            <mxPoint x="183.60000000000002" y="114" as="sourcePoint" />
            <mxPoint x="223" y="266.5" as="targetPoint" />
            <Array as="points">
              <mxPoint x="166" y="171" />
            </Array>
          </mxGeometry>
        </mxCell>
        <mxCell id="CqfZ5ZP81gQBT53N7EVz-73" value="" style="curved=1;endArrow=classic;html=1;entryX=0;entryY=0.5;entryDx=0;entryDy=0;exitX=0.1;exitY=0.5;exitDx=0;exitDy=0;exitPerimeter=0;strokeColor=#A9C4EB;" edge="1" parent="CqfZ5ZP81gQBT53N7EVz-1" target="CqfZ5ZP81gQBT53N7EVz-53">
          <mxGeometry width="50" height="50" relative="1" as="geometry">
            <mxPoint x="69.60000000000002" y="154" as="sourcePoint" />
            <mxPoint x="109" y="306.5" as="targetPoint" />
            <Array as="points">
              <mxPoint x="35" y="211" />
            </Array>
          </mxGeometry>
        </mxCell>
        <mxCell id="CqfZ5ZP81gQBT53N7EVz-74" value="" style="curved=1;endArrow=classic;html=1;entryX=0;entryY=0;entryDx=0;entryDy=0;exitX=0.1;exitY=0.5;exitDx=0;exitDy=0;exitPerimeter=0;strokeColor=#A9C4EB;" edge="1" parent="CqfZ5ZP81gQBT53N7EVz-1" target="CqfZ5ZP81gQBT53N7EVz-54">
          <mxGeometry width="50" height="50" relative="1" as="geometry">
            <mxPoint x="199.60000000000002" y="154.5" as="sourcePoint" />
            <mxPoint x="220" y="295.5" as="targetPoint" />
            <Array as="points">
              <mxPoint x="165" y="211.5" />
            </Array>
          </mxGeometry>
        </mxCell>
        <mxCell id="CqfZ5ZP81gQBT53N7EVz-75" value="" style="curved=1;endArrow=classic;html=1;entryX=0;entryY=0;entryDx=0;entryDy=0;exitX=0.1;exitY=0.5;exitDx=0;exitDy=0;exitPerimeter=0;strokeColor=#A9C4EB;" edge="1" parent="CqfZ5ZP81gQBT53N7EVz-1" target="CqfZ5ZP81gQBT53N7EVz-55">
          <mxGeometry width="50" height="50" relative="1" as="geometry">
            <mxPoint x="329.6" y="95" as="sourcePoint" />
            <mxPoint x="350" y="236" as="targetPoint" />
            <Array as="points">
              <mxPoint x="295" y="152" />
            </Array>
          </mxGeometry>
        </mxCell>
        <mxCell id="CqfZ5ZP81gQBT53N7EVz-76" value="" style="curved=1;endArrow=classic;html=1;exitX=0.1;exitY=0.5;exitDx=0;exitDy=0;exitPerimeter=0;fillColor=#fad7ac;strokeColor=#FFCE9F;" edge="1" parent="CqfZ5ZP81gQBT53N7EVz-1">
          <mxGeometry width="50" height="50" relative="1" as="geometry">
            <mxPoint x="479.9999999999999" y="138" as="sourcePoint" />
            <mxPoint x="391" y="324" as="targetPoint" />
            <Array as="points">
              <mxPoint x="492" y="212" />
            </Array>
          </mxGeometry>
        </mxCell>
        <mxCell id="CqfZ5ZP81gQBT53N7EVz-77" value="" style="curved=1;endArrow=classic;html=1;entryX=0;entryY=1;entryDx=0;entryDy=0;exitX=1;exitY=0;exitDx=0;exitDy=0;strokeColor=#FFCE9F;" edge="1" parent="CqfZ5ZP81gQBT53N7EVz-1" source="CqfZ5ZP81gQBT53N7EVz-10" target="CqfZ5ZP81gQBT53N7EVz-63">
          <mxGeometry width="50" height="50" relative="1" as="geometry">
            <mxPoint x="564.5999999999999" y="127.5" as="sourcePoint" />
            <mxPoint x="525" y="322.5" as="targetPoint" />
            <Array as="points">
              <mxPoint x="532" y="135" />
              <mxPoint x="478" y="379" />
            </Array>
          </mxGeometry>
        </mxCell>
        <mxCell id="CqfZ5ZP81gQBT53N7EVz-78" value="" style="curved=1;endArrow=classic;html=1;strokeColor=#FFCE9F;exitX=0;exitY=0.5;exitDx=0;exitDy=0;" edge="1" parent="CqfZ5ZP81gQBT53N7EVz-1" source="CqfZ5ZP81gQBT53N7EVz-63">
          <mxGeometry width="50" height="50" relative="1" as="geometry">
            <mxPoint x="93" y="483" as="sourcePoint" />
            <mxPoint x="143" y="433" as="targetPoint" />
            <Array as="points">
              <mxPoint x="61" y="382" />
              <mxPoint x="93" y="433" />
            </Array>
          </mxGeometry>
        </mxCell>
        <mxCell id="CqfZ5ZP81gQBT53N7EVz-79" value="" style="curved=1;endArrow=classic;html=1;entryX=0;entryY=0.75;entryDx=0;entryDy=0;strokeColor=#A9C4EB;" edge="1" parent="CqfZ5ZP81gQBT53N7EVz-1" target="CqfZ5ZP81gQBT53N7EVz-16">
          <mxGeometry width="50" height="50" relative="1" as="geometry">
            <mxPoint x="87" y="296" as="sourcePoint" />
            <mxPoint x="78" y="345" as="targetPoint" />
            <Array as="points">
              <mxPoint x="71" y="304" />
              <mxPoint x="53" y="363" />
            </Array>
          </mxGeometry>
        </mxCell>
      </root>
    </mxGraphModel>
  </diagram>
</mxfile>
